Sergeant Slaughter, My Big Brother (2011)

Poster:

Plot: Dan's decision to run away and join the French Foreign Legion has far reaching implications for his younger brother, Keith. 

Cast: 
Tom Hardy ... Dan 
Ben Macleod ... Keith 
Gillian Bevan ... Mum 
Nathaniel Parker ... Dad 
Sean Teale ... Derek 

Genre: Short | Drama
Runtime: 13 min 
Country: UK 
Language: English  

Directed by
Greg Williams
 
Writing credits
Douglas Ray    
Greg Williams 

IMDb: http://www.imdb.com/title/tt1798247/

--------------------------------------------------------------------------------

MediaInfo:

General
Format                                   : Flash Video
File size                                : 42.0 MiB
Duration                                 : 12mn 29s
Overall bit rate                         : 469 Kbps
httphostheader                           :

Video
Format                                   : AVC
Format/Info                              : Advanced Video Codec
Format profile                           : Main@L3.0
Format settings, CABAC                   : Yes
Format settings, ReFrames                : 3 frames
Format settings, GOP                     : M=1, N=25
Codec ID                                 : 7
Duration                                 : 12mn 29s
Bit rate                                 : 333 Kbps
Width                                    : 640 pixels
Height                                   : 360 pixels
Display aspect ratio                     : 16:9
Frame rate mode                          : Constant
Frame rate                               : 25.000 fps
Color space                              : YUV
Chroma subsampling                       : 4:2:0
Bit depth                                : 8 bits
Scan type                                : Progressive
Bits/(Pixel*Frame)                       : 0.058
Stream size                              : 29.7 MiB (71%)

Audio
Format                                   : AAC
Format/Info                              : Advanced Audio Codec
Format profile                           : LC
Codec ID                                 : 10
Duration                                 : 12mn 29s
Bit rate                                 : 129 Kbps
Channel(s)                               : 2 channels
Channel positions                        : Front: L R
Sampling rate                            : 44.1 KHz
Compression mode                         : Lossy
Stream size                              : 11.5 MiB (27%)